<?xml version="1.0" encoding="UTF-8"?>
<svg xmlns="http://www.w3.org/2000/svg" id="Layer_1" data-name="Layer 1" viewBox="0 0 24 24">
  <path d="M12.006,12.309c3.611-.021,5.555-1.971,5.622-5.671-.062-3.56-2.111-5.614-5.634-5.637-3.561,.022-5.622,2.17-5.622,5.637,0,3.571,2.062,5.651,5.634,5.672Zm-.012-9.309c2.437,.016,3.591,1.183,3.634,3.636-.047,2.559-1.133,3.657-3.622,3.672-2.495-.015-3.582-1.108-3.634-3.654,.05-2.511,1.171-3.639,3.622-3.654Z"/>
  <path d="M11.994,13.661c-5.328,.034-8.195,2.911-8.291,8.322-.01,.552,.43,1.008,.982,1.018,.516-.019,1.007-.43,1.018-.982,.076-4.311,2.08-6.331,6.291-6.357,4.168,.027,6.23,2.106,6.304,6.356,.01,.546,.456,.983,1,.983h.018c.552-.01,.992-.465,.983-1.017-.092-5.333-3.036-8.288-8.304-8.322Z"/>
</svg>
